<?xml version="1.0" encoding="UTF-8"?>
<svg id="Layer1" xmlns="http://www.w3.org/2000/svg" version="1.1" viewBox="0 0 96 96">
  <!-- Generator: Adobe Illustrator 29.5.0, SVG Export Plug-In . SVG Version: 2.1.0 Build 137)  -->
  <g id="_x3C_Group_x3E_">
    <path d="M65.29785,56.52344c0,2.0625-.41797,3.88965-1.25586,5.47949-.83594,1.59082-2.02734,2.93457-3.57422,4.03223-1.54883,1.09668-3.41602,1.93066-5.60547,2.50098s-4.625.85547-7.30566.85547h-11.75879V26.37744h12.85889c10.01611,0,15.02588,3.48877,15.02588,10.46582,0,2.32568-.58008,4.32275-1.73633,5.98975-1.1582,1.66748-3.04297,2.90723-5.65625,3.71875,1.21484.21973,2.36523.59229,3.45508,1.11914,1.08789.52637,2.04492,1.20654,2.87109,2.04004.82422.83398,1.47852,1.82129,1.95898,2.96191.48242,1.1416.72266,2.4248.72266,3.85059ZM57.32129,37.63281c0-.87695-.13867-1.70557-.41211-2.48438-.27539-.77881-.75781-1.44824-1.44531-2.00781s-1.61523-1.00342-2.78516-1.33252c-1.16797-.3291-2.64648-.49365-4.43457-.49365h-6.32617v13.45996h6.12012c1.39648,0,2.66406-.14209,3.79883-.42773,1.13477-.28467,2.10938-.72412,2.92188-1.31641.81445-.59229,1.44531-1.33301,1.89258-2.22119.44531-.88867.66992-1.94727.66992-3.17627ZM58.7998,56.7207c0-1.09668-.24023-2.08398-.72266-2.96191-.48047-.87695-1.18164-1.61719-2.09766-2.2207s-2.0332-1.07031-3.35156-1.39941c-1.31836-.32812-2.80273-.49316-4.45215-.49316h-6.25781v14.80957h6.46387c3.50586,0,6.11914-.625,7.83789-1.87598,1.7207-1.25098,2.58008-3.20312,2.58008-5.8584Z" fill="#fff"/>
    <g id="_x3C_Elipse_x3E_">
      <path d="M48,3.75c24.39954,0,44.25,19.85046,44.25,44.25s-19.85046,44.25-44.25,44.25S3.75,72.39954,3.75,48,23.60046,3.75,48,3.75M48,0C21.49033,0,0,21.49033,0,48s21.49033,48,48,48,48-21.49033,48-48S74.50967,0,48,0h0Z" fill="#424242"/>
    </g>
  </g>
</svg>