<?xml version="1.0" encoding="UTF-8"?>
<svg id="Layer1" xmlns="http://www.w3.org/2000/svg" version="1.1" viewBox="0 0 96 96">
  <!-- Generator: Adobe Illustrator 29.5.0, SVG Export Plug-In . SVG Version: 2.1.0 Build 137)  -->
  <g id="_x3C_Group_x3E_">
    <path id="_x3C_Elipse_x3E_" d="M48,3.75c24.39954,0,44.25,19.85046,44.25,44.25s-19.85046,44.25-44.25,44.25S3.75,72.39954,3.75,48,23.60046,3.75,48,3.75M48,0C21.49033,0,0,21.49033,0,48s21.49033,48,48,48,48-21.49033,48-48S74.50967,0,48,0h0Z" fill="#424242"/>
    <path id="_x3C_Path_x3E_" d="M30.54932,68.46973l15.55078-22.75732-13.71338-20.90967h6.33545l7.2959,11.19971c1.51758,2.32324,2.59619,4.11035,3.23682,5.36133.89551-1.58838,1.95605-3.24658,3.18164-4.97412l8.09082-11.58691h5.78711l-14.125,20.58203,15.22168,23.08496h-6.58203l-10.12109-15.57812c-.56641-.89355-1.15137-1.86621-1.75537-2.91895-.896,1.58887-1.53613,2.68066-1.91992,3.27637l-10.09326,15.2207s-6.39014,0-6.39015,0Z" fill="#fff"/>
  </g>
</svg>