<?xml version="1.0" encoding="UTF-8"?>
<svg id="Layer1" xmlns="http://www.w3.org/2000/svg" version="1.1" viewBox="0 0 96 96">
  <!-- Generator: Adobe Illustrator 29.5.0, SVG Export Plug-In . SVG Version: 2.1.0 Build 137)  -->
  <g id="_x3C_Group_x3E_">
    <path id="_x3C_Path_x3E_" d="M50.7214,71.41222l-15.68404-9.05518c-.32101-.18533-.51876-.52785-.51876-.89852v-6.00238c0-.79868.8646-1.29786,1.55628-.89852l11.98087,6.91716c.49726.28709,1.13314.11572,1.41879-.38238l3.09078-5.38966c.28447-.49605.11394-1.12874-.38127-1.41465l-16.67943-9.62988c-.49626-.28651-.66627-.92109-.37973-1.41733l10.53144-18.23864c.28652-.4962.92103-.6662,1.41725-.37971l15.5312,8.96694c.32101.18533.51875.52785.51875.89852v6.00238c0,.79868-.8646,1.29786-1.55628.89852l-11.83329-6.83195c-.49624-.2865-1.13077-.11648-1.41728.37976l-3.28318,5.68662c-.28702.49714-.11581,1.13286.38206,1.4186l16.71943,9.596c.49787.28575.66908.92147.38206,1.4186l-10.37841,17.97594c-.2865.49624-.92104.66627-1.41728.37976h0Z" fill="#fff"/>
    <g id="_x3C_Elipse_x3E_">
      <path d="M48,3.75c24.39954,0,44.25,19.85046,44.25,44.25s-19.85046,44.25-44.25,44.25S3.75,72.39954,3.75,48,23.60046,3.75,48,3.75M48,0C21.49033,0,0,21.49033,0,48s21.49033,48,48,48,48-21.49033,48-48S74.50967,0,48,0h0Z" fill="#424242"/>
    </g>
  </g>
</svg>